<?xml version="1.0" encoding="iso-8859-1"?>
<!-- Generator: Adobe Illustrator 19.0.0, SVG Export Plug-In . SVG Version: 6.00 Build 0)  -->
<svg version="1.1" id="Layer_1" xmlns="http://www.w3.org/2000/svg" xmlns:xlink="http://www.w3.org/1999/xlink" x="0px" y="0px"
	 viewBox="0 0 473.677 473.677" style="enable-background:new 0 0 473.677 473.677;" xml:space="preserve">
<circle style="fill:#D7DABA;" cx="236.846" cy="236.837" r="236.827"/>
<path style="fill:#A44A24;" d="M0,236.829h473.677c0,130.799-106.036,236.838-236.842,236.838C106.036,473.668,0,367.624,0,236.829z
	"/>
<rect x="210.594" y="172.479" style="fill:#F37C2A;" width="45.694" height="25.941"/>
<rect x="171.437" y="94.482" style="fill:#3A3A39;" width="124.042" height="99.039"/>
<g>
	<rect x="181.369" y="102.414" style="fill:#FFFFFF;" width="104.162" height="83.183"/>
	<path style="fill:#FFFFFF;" d="M235.096,346.563c-27.31,0-49.448,7.296-49.448,16.301s22.138,16.301,49.448,16.301
		c27.303,0,49.448-7.296,49.448-16.301S262.398,346.563,235.096,346.563z M235.096,370.231c-24.913,0-45.11-4.682-45.11-10.456
		c0-5.778,20.194-10.456,45.11-10.456s45.11,4.678,45.11,10.456C280.206,365.549,260.009,370.231,235.096,370.231z"/>
</g>
<g>
	
		<rect x="145.414" y="271.561" transform="matrix(-0.0707 -0.9975 0.9975 -0.0707 -37.5551 511.3766)" style="fill:#EFEFEF;" width="148.031" height="3.242"/>
	
		<rect x="250.846" y="199.11" transform="matrix(-0.9976 -0.0698 0.0698 -0.9976 485.2557 563.2153)" style="fill:#EFEFEF;" width="3.242" height="148.041"/>
	
		<rect x="277.596" y="204.907" transform="matrix(-0.9851 -0.1721 0.1721 -0.9851 506.3274 601.0901)" style="fill:#EFEFEF;" width="3.246" height="147.38"/>
	
		<rect x="119.536" y="276.321" transform="matrix(-0.1442 -0.9895 0.9895 -0.1442 -53.6234 509.5055)" style="fill:#EFEFEF;" width="147.942" height="3.238"/>
	<path style="fill:#EFEFEF;" d="M304.723,231.444c-0.307-0.135-31.143-13.257-70.469-13.257c-39.318,0-69.313,13.115-69.612,13.249
		l-1.324-2.965c0.307-0.138,30.904-13.53,70.936-13.53c40.025,0,71.445,13.388,71.759,13.522L304.723,231.444z"/>
	<path style="fill:#EFEFEF;" d="M302.322,255.059c-0.299-0.127-30.077-12.801-68.049-12.801c-38.009,0-66.938,12.666-67.226,12.793
		l-1.316-2.965c0.292-0.131,29.849-13.07,68.539-13.07c38.675,0,69.036,12.935,69.335,13.062L302.322,255.059z"/>
	<path style="fill:#EFEFEF;" d="M298.07,283.521c-0.269-0.123-28.185-11.997-63.778-11.997c-35.619,0-62.731,11.869-63.004,11.989
		l-1.316-2.969c0.277-0.12,28.017-12.262,64.317-12.262c36.293,0,64.784,12.135,65.069,12.258L298.07,283.521z"/>
	<path style="fill:#EFEFEF;" d="M291.447,308.614c-0.247-0.105-25.242-10.736-57.107-10.736c-31.861,0-56.18,10.624-56.415,10.733
		l-1.324-2.969c0.247-0.105,25.156-11.006,57.735-11.006c32.568,0,58.139,10.893,58.401,11.002L291.447,308.614z"/>
	<path style="fill:#EFEFEF;" d="M288.13,333.089c-0.236-0.101-23.765-10.112-53.779-10.112c-30.04,0-52.896,10.003-53.121,10.104
		l-1.316-2.965c0.236-0.101,23.724-10.385,54.437-10.385s54.83,10.276,55.073,10.381L288.13,333.089z"/>
	<path style="fill:#EFEFEF;" d="M189.989,359.775c0-5.778,20.194-10.456,45.11-10.456s45.11,4.678,45.11,10.456
		c0,0.337-0.086,0.673-0.221,0.998h4.099c-3.119-8.018-23.832-14.21-48.988-14.21s-45.877,6.193-48.996,14.21h4.106
		C190.075,360.448,189.989,360.112,189.989,359.775z"/>
</g>
<g>
	
		<rect x="104.212" y="291.384" transform="matrix(-0.2025 -0.9793 0.9793 -0.2025 -78.3064 523.3235)" style="fill:#FFFFFF;" width="139.451" height="4.327"/>
	
		<rect x="293.899" y="223.815" transform="matrix(-0.9795 -0.2015 0.2015 -0.9795 526.9085 640.7527)" style="fill:#FFFFFF;" width="4.334" height="139.488"/>
	<rect x="234.307" y="236.949" style="fill:#FFFFFF;" width="3.242" height="140.137"/>
	
		<rect x="264.838" y="236.932" transform="matrix(-0.996 -0.0888 0.0888 -0.996 504.8335 631.4276)" style="fill:#FFFFFF;" width="3.25" height="135.104"/>
	
		<rect x="136.997" y="302.899" transform="matrix(-0.0898 -0.996 0.996 -0.0898 -80.3663 535.5933)" style="fill:#FFFFFF;" width="135.116" height="3.242"/>
	<path style="fill:#FFFFFF;" d="M235.096,267.34c-40.025,0-71.445-13.384-71.755-13.519l1.286-2.98
		c0.307,0.135,31.143,13.257,70.469,13.257c39.352,0,69.313-13.118,69.612-13.253l1.316,2.969
		C305.725,253.949,275.135,267.34,235.096,267.34z"/>
	<path style="fill:#FFFFFF;" d="M235.058,289.303c-36.308,0-64.807-12.146-65.091-12.266l1.286-2.977
		c0.277,0.116,28.2,11.997,63.808,11.997c35.593,0,62.754-11.873,63.027-11.993l1.316,2.965
		C299.121,277.149,271.373,289.303,235.058,289.303z"/>
	<path style="fill:#FFFFFF;" d="M235.04,313.457c-34.445,0-61.49-11.518-61.763-11.634l1.294-2.977
		c0.262,0.112,26.723,11.368,60.469,11.368c33.772,0,59.474-11.249,59.732-11.361l1.316,2.965
		C295.826,301.931,269.489,313.457,235.04,313.457z"/>
	<path style="fill:#FFFFFF;" d="M234.995,335.419c-30.721,0-54.845-10.276-55.084-10.377l1.286-2.98
		c0.236,0.097,23.78,10.116,53.801,10.116c30.055,0,52.915-10.011,53.143-10.108l1.324,2.965
		C289.226,325.139,265.73,335.419,234.995,335.419z"/>
	<path style="fill:#FFFFFF;" d="M234.987,355.89c-29.348,0-52.384-9.816-52.616-9.914l1.286-2.98
		c0.228,0.094,22.692,9.652,51.333,9.652c28.623,0,50.477-9.551,50.69-9.644l1.324,2.965
		C286.085,346.372,264.336,355.89,234.987,355.89z"/>
</g>
<path style="fill:#F37C2A;" d="M235.096,196.801c-43.435,0-78.639,11.611-78.639,25.934c0,14.326,35.204,25.938,78.639,25.938
	c43.428,0,78.639-11.608,78.639-25.938C313.735,208.416,278.523,196.801,235.096,196.801z M235.096,234.451
	c-39.625,0-71.74-7.442-71.74-16.626c0-9.188,32.115-16.63,71.74-16.63s71.74,7.442,71.74,16.63
	C306.836,227.009,274.72,234.451,235.096,234.451z"/>
<g>
</g>
<g>
</g>
<g>
</g>
<g>
</g>
<g>
</g>
<g>
</g>
<g>
</g>
<g>
</g>
<g>
</g>
<g>
</g>
<g>
</g>
<g>
</g>
<g>
</g>
<g>
</g>
<g>
</g>
</svg>
